<svg id="ロゴ" xmlns="http://www.w3.org/2000/svg" viewBox="0 0 316.395 356.328">
  <defs>
    <style>
      .cls-1 {
        fill: #fff100;
      }

      .cls-2 {
        fill: #e4007f;
      }

      .cls-3 {
        fill: #094;
      }

      .cls-4 {
        fill: #00a0e9;
      }
    </style>
  </defs>
  <g id="Group_87" data-name="Group 87" transform="translate(0 0)">
    <g id="Group_84" data-name="Group 84" transform="translate(70.139)">
      <path id="Path_255" data-name="Path 255" d="M231.134,112.153c0,.256-.512,9.215-15.1,14.847-3.072,1.28-7.935,4.352-15.871,9.727-7.424,4.864-16.895,11.263-21.247,12.8-8.959,3.328-19.711,4.864-27.134,5.632l9.215-35.838c3.584-4.1,15.1-17.919,22.527-26.878,3.584-4.352,5.376-4.608,10.239-5.12a56.621,56.621,0,0,0,14.079-3.328c17.407-6.656,18.431-38.909,18.431-45.565a18.038,18.038,0,0,0-7.423-2.56,10.416,10.416,0,0,0-6.912,2.56c0,13.567-3.584,29.95-8.959,32a57.739,57.739,0,0,1-10.751,2.56c-6.144.768-12.287,1.536-19.711,10.5-4.352,5.376-10.239,12.287-14.847,17.919l-8.191-26.11c-1.792-5.888.512-15.1,2.56-23.294,1.024-4.352,2.3-8.447,2.56-12.287C156.387,25.631,138.212,11.3,132.58,7.2a9.987,9.987,0,0,0-6.656,4.1,12.747,12.747,0,0,0-1.792,7.679c8.7,6.4,16.639,15.359,16.127,18.687a72.164,72.164,0,0,1-2.3,10.5c-2.56,9.983-5.376,21.247-2.3,31.23l11.519,36.606-5.12,19.2-1.536-4.608c-9.471-29.95-15.615-37.885-19.455-41.213-7.168-6.4-13.567-8.447-19.2-10.239-5.12-1.536-8.959-2.816-13.823-7.168C81.64,66.332,79.592,45.6,80.1,32.542c0,0-2.3-2.816-7.424-2.816s-7.168,2.3-7.168,2.3a176.163,176.163,0,0,0,.768,19.711c1.792,15.1,5.632,25.342,12.031,30.974,7.168,6.4,13.567,8.447,19.2,10.239,4.864,1.536,8.959,2.816,13.823,7.168,6.144,5.376,15.1,32.254,21.247,54.268-7.679-1.28-18.175-4.1-26.878-8.959-5.888-3.328-10.239-9.983-14.079-15.615-2.56-3.84-4.608-7.168-7.424-9.471C70.121,107.545,44.778,99.1,43.754,98.586a12.048,12.048,0,0,0-4.608,5.888,14.552,14.552,0,0,0,0,7.935c.256,0,23.55,7.935,35.326,18.687,1.28,1.024,3.072,3.84,4.864,6.656,4.1,6.4,9.983,15.1,18.943,20.223,12.543,7.168,27.9,10.239,36.606,11.519V269.582a22.877,22.877,0,0,0,7.168,1.792,13.583,13.583,0,0,0,7.168-1.792V170.005c8.191-.512,22.271-2.3,34.558-6.656,5.888-2.3,15.359-8.447,24.318-14.335,5.12-3.328,11.519-7.424,13.311-8.191,19.455-7.679,22.015-23.038,22.527-24.062,0,0-.768-3.072-4.864-5.632C234.974,108.313,231.134,112.153,231.134,112.153Z" transform="translate(-9.965 11.231)"/>
      <circle id="Ellipse_36" data-name="Ellipse 36" class="cls-1" cx="10.495" cy="10.495" r="10.495" transform="translate(75.515 110.585)"/>
      <circle id="Ellipse_37" data-name="Ellipse 37" class="cls-2" cx="10.495" cy="10.495" r="10.495" transform="translate(153.846 58.62)"/>
      <circle id="Ellipse_38" data-name="Ellipse 38" class="cls-3" cx="10.495" cy="10.495" r="10.495" transform="translate(95.738 62.716)"/>
      <circle id="Ellipse_39" data-name="Ellipse 39" class="cls-1" cx="10.495" cy="10.495" r="10.495" transform="translate(155.126 129.527)"/>
      <circle id="Ellipse_40" data-name="Ellipse 40" class="cls-4" cx="10.495" cy="10.495" r="10.495" transform="translate(184.308 106.233)"/>
      <circle id="Ellipse_41" data-name="Ellipse 41" class="cls-2" cx="10.495" cy="10.495" r="10.495" transform="translate(225.265 97.529)"/>
      <circle id="Ellipse_42" data-name="Ellipse 42" class="cls-3" cx="10.495" cy="10.495" r="10.495" transform="translate(198.643 21.759)"/>
      <circle id="Ellipse_43" data-name="Ellipse 43" class="cls-1" cx="10.495" cy="10.495" r="10.495" transform="translate(94.458)"/>
      <circle id="Ellipse_44" data-name="Ellipse 44" class="cls-2" cx="10.495" cy="10.495" r="10.495" transform="translate(50.941 14.335)"/>
      <circle id="Ellipse_45" data-name="Ellipse 45" class="cls-4" cx="10.495" cy="10.495" r="10.495" transform="translate(0 99.065)"/>
    </g>
    <g id="Group_85" data-name="Group 85" transform="translate(227.569 186.867)">
      <path id="Path_256" data-name="Path 256" d="M103.491,73.4h33.79a26.8,26.8,0,0,1,1.792,8.191,18.273,18.273,0,0,1-1.792,7.935H113.986l-3.072,16.639c.768-.256,1.536-.512,2.56-.768a7.9,7.9,0,0,1,2.3-.256c6.656,0,12.287,2.816,16.639,8.447s6.656,13.055,6.656,21.759c0,8.959-2.56,16.639-7.424,22.782s-10.751,9.215-17.919,9.215A22.019,22.019,0,0,1,97.6,160.69c-4.608-4.352-7.168-9.727-8.7-17.407a18.947,18.947,0,0,1,7.424-1.792,14.8,14.8,0,0,1,7.424,1.792,11.978,11.978,0,0,0,4.1,5.632,9.173,9.173,0,0,0,6.144,2.3c3.072,0,5.632-1.28,7.935-4.1a17.913,17.913,0,0,0,3.328-10.751,17.021,17.021,0,0,0-3.072-10.5c-2.048-2.816-4.352-4.1-7.424-4.1a8.258,8.258,0,0,0-4.608,1.536,12.305,12.305,0,0,0-3.84,3.584,15.268,15.268,0,0,1-6.4,0,12.152,12.152,0,0,1-5.632-3.328Z" transform="translate(-88.9 -72.376)"/>
      <path id="Path_257" data-name="Path 257" d="M120.075,99.622a14.818,14.818,0,0,1,6.656-1.792,16.605,16.605,0,0,1,6.912,1.792v68.859q0,9.6-1.536,14.591a15.135,15.135,0,0,1-4.864,7.424,12.3,12.3,0,0,1-7.935,2.56c-2.816,0-5.376-.768-9.471-2.56a20.577,20.577,0,0,1-1.536-6.912,18.329,18.329,0,0,1,1.536-6.656c2.048,1.28,3.328,2.048,4.864,2.048a4.211,4.211,0,0,0,3.84-2.048c.768-1.28,1.28-3.584,1.28-7.168ZM126.731,73a7.589,7.589,0,0,1,6.144,2.56,9.279,9.279,0,0,1,0,12.8,8.32,8.32,0,0,1-6.144,2.56,7.789,7.789,0,0,1-6.144-2.816,8.886,8.886,0,0,1-2.56-6.4,7.589,7.589,0,0,1,2.56-6.144A8.32,8.32,0,0,1,126.731,73Z" transform="translate(-58.639 -73)"/>
    </g>
    <g id="Group_86" data-name="Group 86" transform="translate(0 186.612)">
      <path id="Path_258" data-name="Path 258" d="M.256,74.692S4.1,72.9,6.912,72.9s6.656,1.792,6.656,1.792v32a29.056,29.056,0,0,1,7.935-6.4,16.211,16.211,0,0,1,8.191-2.048,16.624,16.624,0,0,1,13.567,6.912c3.072,4.1,4.864,9.983,4.864,17.919V167.1a16.273,16.273,0,0,1-6.656,1.792,18.33,18.33,0,0,1-6.656-1.536V137.92c0-7.935-.256-13.311-1.024-16.127q-.768-4.224-3.072-6.144a8.261,8.261,0,0,0-5.376-2.048,9.074,9.074,0,0,0-7.168,3.328c-2.048,2.3-3.328,5.376-4.1,9.471-.512,2.048-.512,6.656-.512,14.079V167.1a13.938,13.938,0,0,1-6.912,1.792A12.407,12.407,0,0,1,0,167.1Z" transform="translate(0 -72.9)"/>
      <path id="Path_259" data-name="Path 259" d="M29.635,74.692A18.215,18.215,0,0,1,36.547,72.9a18.215,18.215,0,0,1,6.912,1.792V99.778h7.168a20.611,20.611,0,0,1,1.792,7.424,20.611,20.611,0,0,1-1.792,7.424H43.459V167.1a12.42,12.42,0,0,1-6.912,1.536,17.112,17.112,0,0,1-6.912-1.536V114.369H23.492s-1.792-4.352-1.792-7.424,1.792-7.424,1.792-7.424h6.144Z" transform="translate(33.848 -72.9)"/>
      <path id="Path_260" data-name="Path 260" d="M36.1,84.492A18.215,18.215,0,0,1,43.012,82.7a18.215,18.215,0,0,1,6.912,1.792v7.935A22.4,22.4,0,0,1,57.6,85.26a18.934,18.934,0,0,1,9.215-2.3,15.337,15.337,0,0,1,9.215,3.072c2.816,2.048,4.864,5.12,6.656,9.215a23.669,23.669,0,0,1,7.935-9.215,18.46,18.46,0,0,1,10.239-3.072A16.367,16.367,0,0,1,111.1,86.284a19.867,19.867,0,0,1,6.4,8.7c1.28,3.584,2.048,9.471,2.048,17.663v39.165a25.626,25.626,0,0,1-6.912,1.792,18.215,18.215,0,0,1-6.912-1.792v-33.79c0-7.679-.768-13.055-2.3-15.615a7.312,7.312,0,0,0-6.912-4.1,9.316,9.316,0,0,0-6.4,2.56,15.582,15.582,0,0,0-4.1,6.912c-1.024,2.816-1.28,7.679-1.28,14.079v29.95a12.42,12.42,0,0,1-6.912,1.536,21.515,21.515,0,0,1-6.912-1.536V119.562c0-6.144-.256-10.5-1.024-13.311s-1.792-4.864-3.328-6.144a7.611,7.611,0,0,0-5.12-2.048,8.32,8.32,0,0,0-6.144,2.56,15.148,15.148,0,0,0-4.1,7.168c-1.024,3.072-1.28,7.935-1.28,14.335v29.438a18.215,18.215,0,0,1-6.912,1.792,20.069,20.069,0,0,1-6.912-1.792V84.492Z" transform="translate(56.31 -57.614)"/>
    </g>
  </g>
  <g id="Group_88" data-name="Group 88" transform="translate(0 303.084)">
    <path id="Path_261" data-name="Path 261" d="M0,119.712a18.1,18.1,0,0,1,3.072-.512,18.1,18.1,0,0,1,3.072.512l4.864,31.742,5.888-31.742a10.416,10.416,0,0,1,2.56-.512,10.416,10.416,0,0,1,2.56.512l6.144,31.742,4.864-31.742a24.78,24.78,0,0,1,3.072-.512,18.1,18.1,0,0,1,3.072.512l-7.424,49.917a18.1,18.1,0,0,1-3.072.512,18.1,18.1,0,0,1-3.072-.512l-6.144-32.51-6.144,32.51a13.991,13.991,0,0,1-3.072.512,13.991,13.991,0,0,1-3.072-.512Z" transform="translate(0 -117.152)"/>
    <path id="Path_262" data-name="Path 262" d="M42.4,146.071H22.432a11.963,11.963,0,0,0,2.3,6.4,5.945,5.945,0,0,0,4.864,2.3c2.3,0,4.1-1.024,5.888-3.328a10.282,10.282,0,0,1,3.328,1.024,6.306,6.306,0,0,1,2.048,2.56,13.95,13.95,0,0,1-4.608,5.888,11.2,11.2,0,0,1-6.4,2.048,10.657,10.657,0,0,1-9.471-5.632c-2.56-3.584-3.584-8.191-3.584-13.823s1.28-10.5,3.584-14.079c2.56-3.84,5.376-5.632,9.215-5.632a10.657,10.657,0,0,1,9.471,5.632c2.56,3.84,3.584,8.7,3.584,14.847ZM36.255,138.9a13.525,13.525,0,0,0-2.3-5.12,5.771,5.771,0,0,0-4.1-2.048,5.815,5.815,0,0,0-4.608,2.3,17.271,17.271,0,0,0-2.3,4.864Z" transform="translate(26.205 -109.977)"/>
    <path id="Path_263" data-name="Path 263" d="M35.1,119.868v16.383a10.48,10.48,0,0,1,3.584-3.84,8.5,8.5,0,0,1,4.1-1.28c3.328,0,5.888,1.792,8.191,5.376s3.328,8.447,3.328,14.079-1.28,10.239-3.584,13.823c-2.3,3.84-5.12,5.632-8.191,5.632a7.512,7.512,0,0,1-4.1-1.024,10.48,10.48,0,0,1-3.584-3.84v4.352a11.16,11.16,0,0,1-3.072.512,11.16,11.16,0,0,1-3.072-.512V119.612a11.16,11.16,0,0,1,3.072-.512A8.332,8.332,0,0,1,35.1,119.868Zm6.656,19.967c-2.048,0-3.584,1.024-4.864,3.072a16.4,16.4,0,0,0,0,15.871c1.28,2.048,2.816,3.072,4.864,3.072a5.842,5.842,0,0,0,4.864-3.072,14.554,14.554,0,0,0,2.048-7.936,15.18,15.18,0,0,0-1.792-7.935C45.083,140.859,43.547,139.835,41.755,139.835Z" transform="translate(44.767 -117.308)"/>
    <path id="Path_264" data-name="Path 264" d="M46.2,119.2h6.656c3.584,0,6.4.512,7.935,1.536a10.865,10.865,0,0,1,3.84,4.864,20.426,20.426,0,0,1,1.28,8.191c0,3.584-.512,6.4-1.792,8.7a11.146,11.146,0,0,1-4.864,4.864,20.322,20.322,0,0,1-6.656.768v21.5a13.991,13.991,0,0,1-3.072.512,11.161,11.161,0,0,1-3.072-.512V119.2Zm6.4,19.711h2.048a8.9,8.9,0,0,0,3.328-.512,5.551,5.551,0,0,0,1.536-1.792,9.2,9.2,0,0,0,.512-2.816,5.628,5.628,0,0,0-1.536-4.352c-.768-.768-2.048-1.024-4.1-1.024H52.6Z" transform="translate(72.064 -117.152)"/>
    <path id="Path_265" data-name="Path 265" d="M55.9,119.712a13.991,13.991,0,0,1,3.072-.512,13.991,13.991,0,0,1,3.072.512v49.917a13.991,13.991,0,0,1-3.072.512,13.991,13.991,0,0,1-3.072-.512Z" transform="translate(87.194 -117.152)"/>
    <path id="Path_266" data-name="Path 266" d="M79.455,124.924a9.9,9.9,0,0,1,3.072-.768,9.9,9.9,0,0,1,3.072.768V162.3a9.471,9.471,0,0,1-6.144,0v-4.352a13.146,13.146,0,0,1-3.584,3.84,7.512,7.512,0,0,1-4.1,1.024c-3.328,0-5.888-1.792-8.191-5.632A26.422,26.422,0,0,1,60,143.355c0-5.632,1.024-10.5,3.328-14.079s5.12-5.376,8.191-5.376a7.735,7.735,0,0,1,4.1,1.28,10.48,10.48,0,0,1,3.584,3.84v-4.1Zm-6.4,7.423c-2.048,0-3.584,1.024-4.864,3.072s-1.792,4.608-1.792,7.935a14.555,14.555,0,0,0,2.048,7.936c1.28,2.048,2.816,3.072,4.864,3.072s3.584-1.024,4.864-3.072a16.4,16.4,0,0,0,0-15.871C76.639,133.371,75.1,132.347,73.055,132.347Z" transform="translate(93.59 -109.821)"/>
    <path id="Path_267" data-name="Path 267" d="M74.828,119.712,77.9,119.2l3.072.512v12.543H84.3a16.639,16.639,0,0,1,0,8.191H80.971v29.438a9.472,9.472,0,0,1-6.144,0V140.447H72.012a22.936,22.936,0,0,1-.512-4.1,22.937,22.937,0,0,1,.512-4.1h2.816Z" transform="translate(111.528 -117.152)"/>
    <path id="Path_268" data-name="Path 268" d="M78.9,133.759h2.048c0-4.864,0-7.679.256-8.7A9.229,9.229,0,0,1,83,120.192a4.774,4.774,0,0,1,4.1-1.792,9.408,9.408,0,0,1,4.1,1.28l.512,3.584-.512,3.584a3.442,3.442,0,0,0-2.048-.512,1.548,1.548,0,0,0-1.536.768c-.256.256-.256,1.024-.256,2.048v4.608h3.584a18.68,18.68,0,0,1,.512,3.84,22.936,22.936,0,0,1-.512,4.1H87.347v29.182a9.471,9.471,0,0,1-6.144,0V141.694H79.156a19.373,19.373,0,0,1-.512-4.1A10.739,10.739,0,0,1,78.9,133.759Z" transform="translate(122.559 -118.4)"/>
    <path id="Path_269" data-name="Path 269" d="M98.155,123.9a9.921,9.921,0,0,1,6.656,2.56,18.67,18.67,0,0,1,4.864,7.168,27.3,27.3,0,0,1,0,19.455,18.67,18.67,0,0,1-4.864,7.168,9.477,9.477,0,0,1-6.656,2.56c-3.584,0-6.656-1.792-9.215-5.632a24.343,24.343,0,0,1-3.84-13.823,24.077,24.077,0,0,1,4.352-14.591C92.012,125.436,95.083,123.9,98.155,123.9Zm.256,8.7c-2.048,0-3.584,1.024-4.864,3.072a14.262,14.262,0,0,0-2.048,7.679c0,3.328.512,5.888,1.792,7.936s2.816,3.072,4.864,3.072,3.584-1.024,4.864-3.072a14.555,14.555,0,0,0,2.048-7.936c0-3.072-.512-5.888-1.792-7.679A5.842,5.842,0,0,0,98.411,132.6Z" transform="translate(132.741 -109.821)"/>
    <path id="Path_270" data-name="Path 270" d="M97,124.468a6.655,6.655,0,0,1,5.12,0v5.12a10.064,10.064,0,0,1,2.3-4.352A4.425,4.425,0,0,1,107.5,123.7a3.127,3.127,0,0,1,2.3,1.024,8.671,8.671,0,0,1,0,4.1c-.512,3.072-1.792,3.84-1.792,3.84-.768-.512-1.024-.768-1.536-.768-1.024,0-1.792,1.024-2.3,2.816-.768,1.792-1.024,5.376-1.024,10.5V162.1a5.717,5.717,0,0,1-3.072.512A11.16,11.16,0,0,1,97,162.1V124.468Z" transform="translate(151.303 -110.133)"/>
    <path id="Path_271" data-name="Path 271" d="M103.8,125.08a6.528,6.528,0,0,1,6.144,0v4.1a14.225,14.225,0,0,1,3.584-4.1,8.63,8.63,0,0,1,4.352-1.28,5.093,5.093,0,0,1,4.1,1.792,10.918,10.918,0,0,1,3.072,5.12,16.375,16.375,0,0,1,3.584-5.12,8.69,8.69,0,0,1,4.608-1.792,6.169,6.169,0,0,1,4.608,1.792,10.216,10.216,0,0,1,2.816,4.864,44.643,44.643,0,0,1,.768,9.727V162.2a9.471,9.471,0,0,1-6.144,0V143.255c0-4.352-.256-7.168-1.024-8.7s-1.792-2.3-3.072-2.3a4.111,4.111,0,0,0-2.816,1.28,8.906,8.906,0,0,0-1.792,3.84c-.512,1.536-.512,4.352-.512,7.935V162.2a9.471,9.471,0,0,1-6.144,0V144.023a47.264,47.264,0,0,0-.512-7.423,5.787,5.787,0,0,0-1.536-3.328,3.127,3.127,0,0,0-2.3-1.024,4.11,4.11,0,0,0-2.816,1.28,8.906,8.906,0,0,0-1.792,3.84c-.512,1.792-.512,4.352-.512,7.935v16.639a9.472,9.472,0,0,1-6.144,0V125.08Z" transform="translate(161.91 -109.977)"/>
  </g>
</svg>
