<svg id="タテ" xmlns="http://www.w3.org/2000/svg" viewBox="0 0 254.94 284.33"><defs><style>.cls-1{fill:#231815;}.cls-2{fill:#fff100;}.cls-3{fill:#e4007f;}.cls-4{fill:#094;}.cls-5{fill:#00a0e9;}</style></defs><title>logo_tate</title><path class="cls-1" d="M231.47,99.15c-.08.15-.42,7.12-11.64,11.55-2.45,1-6.1,3.35-12.35,7.49-5.81,3.84-13,8.62-16.43,9.87-7,2.58-15.19,3.76-21,4.29l7.2-27.55C180,101.57,188.9,91,194.57,84.08c2.79-3.4,4.07-3.55,7.85-4a42.42,42.42,0,0,0,10.89-2.53c13.48-5.14,14.17-30.14,14.17-35.1a13.86,13.86,0,0,0-5.76-1.94,8.45,8.45,0,0,0-5.44,1.94c0,10.4-2.86,23.07-7,24.64A32.23,32.23,0,0,1,201.05,69c-4.66.57-9.49,1.17-15.12,8-3.35,4.06-7.84,9.44-11.51,13.81L168,70.61c-1.45-4.57.37-11.67,2-17.93a82.32,82.32,0,0,0,2.07-9.54c1.38-10.79-12.69-21.87-17-25a8.07,8.07,0,0,0-5.19,3.09,9.7,9.7,0,0,0-1.37,6c6.75,4.88,12.82,11.93,12.49,14.51a72.45,72.45,0,0,1-1.81,8.19c-2,7.72-4.22,16.46-1.8,24.09l9,28.33-3.82,14.61c-.35-1.16-.72-2.33-1.1-3.51-7.36-23.07-12.12-29.25-15.07-31.9-5.48-4.93-10.43-6.5-14.8-7.88-3.9-1.23-7-2.2-10.61-5.49-4.9-4.44-6.56-20.46-6.16-30.41,0,0-1.68-2.13-5.64-2.22s-5.55,1.77-5.55,1.77a111.35,111.35,0,0,0,.63,15.16c1.3,11.57,4.4,19.64,9.2,24,5.45,4.94,10.4,6.5,14.76,7.88,3.76,1.19,7,2.21,10.69,5.52,4.66,4.2,11.67,24.9,16.32,41.91-5.91-1.05-14.11-3.09-20.77-7-4.58-2.65-7.9-7.7-10.83-12.15a37.62,37.62,0,0,0-5.64-7.32c-11-9.82-30.44-16.44-31.27-16.71a9,9,0,0,0-3.54,4.46,11.94,11.94,0,0,0,0,6.15c.18.06,18.11,6.14,27.36,14.43a35.22,35.22,0,0,1,3.75,5.14c3.26,4.94,7.71,11.72,14.59,15.69,9.73,5.63,21.59,8,28.29,8.91v77.31a15.27,15.27,0,0,0,5.54,1.29,13.15,13.15,0,0,0,5.63-1.29v-77c6.41-.45,17.24-1.7,26.63-5.17,4.62-1.7,11.79-6.45,18.72-11,3.93-2.6,8.82-5.84,10.28-6.42,15-5.93,17-17.83,17.37-18.58a8.19,8.19,0,0,0-3.78-4.33C234.35,96.25,231.47,99.15,231.47,99.15Z"/><circle class="cls-2" cx="127" cy="97.49" r="8.02"/><circle class="cls-3" cx="187.45" cy="57.39" r="8.02"/><circle class="cls-4" cx="142.68" cy="60.55" r="8.02"/><circle class="cls-2" cx="188.57" cy="112.05" r="8.02"/><circle class="cls-5" cx="210.96" cy="94.14" r="8.02"/><circle class="cls-3" cx="242.7" cy="87.29" r="8.02"/><circle class="cls-4" cx="222.15" cy="28.75" r="8.02"/><circle class="cls-2" cx="141.56" cy="11.96" r="8.02"/><circle class="cls-3" cx="107.97" cy="23.15" r="8.02"/><circle class="cls-5" cx="68.8" cy="88.54" r="8.02"/><path class="cls-1" d="M193.4,149.11h26a17.59,17.59,0,0,1,1.29,6.28,15.32,15.32,0,0,1-1.29,6.22l-17.92,0-2.32,12.9a12,12,0,0,1,1.9-.51,10.19,10.19,0,0,1,1.78-.17q7.72,0,12.85,6.6t5.12,16.88q0,10.38-5.67,17.51T201.36,222a17.14,17.14,0,0,1-12.49-5.16c-3.47-3.45-5.62-7.53-6.7-13.52a12.71,12.71,0,0,1,5.75-1.31,11.14,11.14,0,0,1,5.74,1.33,9.26,9.26,0,0,0,3.2,4.39,7.41,7.41,0,0,0,4.73,1.72,7.51,7.51,0,0,0,6.11-3.24,15.08,15.08,0,0,0,.17-16.4,6.89,6.89,0,0,0-5.66-3.17,6.4,6.4,0,0,0-3.5,1.12,9.64,9.64,0,0,0-3,2.76,9.84,9.84,0,0,1-4.87,0,10.07,10.07,0,0,1-4.26-2.49Z"/><path class="cls-1" d="M229.55,168.77a11.66,11.66,0,0,1,5.23-1.34,13.09,13.09,0,0,1,5.3,1.38v53.1q0,7.49-1.18,11.18a11.27,11.27,0,0,1-3.73,5.68,9.72,9.72,0,0,1-6.14,2c-2.12,0-4.16-.6-7.3-1.92a11.59,11.59,0,0,1,0-10.49c1.65,1,2.55,1.54,3.81,1.54a3.4,3.4,0,0,0,3-1.5c.66-1,1-2.83,1-5.51Zm5.24-20.57a6.48,6.48,0,0,1,4.81,2,7.13,7.13,0,0,1,0,9.86,6.32,6.32,0,0,1-4.72,2.05,6.42,6.42,0,0,1-4.81-2.09,7,7,0,0,1-2-5,6.69,6.69,0,0,1,2-4.83A6.38,6.38,0,0,1,234.79,148.2Z"/><path class="cls-1" d="M6.67,149.44a15.47,15.47,0,0,1,5.24-1.32,15.38,15.38,0,0,1,5.23,1.32v24.67a24,24,0,0,1,6.22-5,13.39,13.39,0,0,1,6.34-1.67,13,13,0,0,1,10.55,5.41q3.68,4.68,3.67,13.77v34a12.79,12.79,0,0,1-5.2,1.32,13.52,13.52,0,0,1-5.19-1.29V198.31q0-9.13-.7-12.37a9.08,9.08,0,0,0-2.37-4.83,5.82,5.82,0,0,0-4.16-1.59,7,7,0,0,0-5.5,2.65,15.23,15.23,0,0,0-3.19,7.25,74.26,74.26,0,0,0-.47,10.82v20.47A10.11,10.11,0,0,1,11.91,222a11.21,11.21,0,0,1-5.23-1.3Z"/><path class="cls-1" d="M55.41,149.41a14.22,14.22,0,0,1,5.31-1.3,15.17,15.17,0,0,1,5.24,1.3v19.37h5.55a16.12,16.12,0,0,1,1.35,5.69,16.51,16.51,0,0,1-1.35,5.67H66V220.7A11.23,11.23,0,0,1,60.69,222a12.31,12.31,0,0,1-5.28-1.29V180.14H50.69a18.82,18.82,0,0,1-1.36-5.67,18.82,18.82,0,0,1,1.37-5.69h4.71Z"/><path class="cls-1" d="M77.79,168.78a13.33,13.33,0,0,1,5.27-1.36,14.42,14.42,0,0,1,5.28,1.36v6a18.81,18.81,0,0,1,6-5.55,14.57,14.57,0,0,1,7.21-1.84,11.46,11.46,0,0,1,7.12,2.42,16.72,16.72,0,0,1,5.11,7.05,19.14,19.14,0,0,1,6.16-7.05,14.21,14.21,0,0,1,8-2.42,12.61,12.61,0,0,1,7.89,2.61,14.44,14.44,0,0,1,4.89,6.81q1.49,4.2,1.49,13.67V220.7a14.9,14.9,0,0,1-5.35,1.3,13.42,13.42,0,0,1-5.28-1.3v-26q0-8.94-1.77-12.1a5.77,5.77,0,0,0-5.34-3.17,7.1,7.1,0,0,0-4.85,1.93,11.6,11.6,0,0,0-3.19,5.34q-1,3.4-1,10.94V220.7a9.83,9.83,0,0,1-5.33,1.29,13,13,0,0,1-5.3-1.29V195.88a44.13,44.13,0,0,0-.83-10.21,9.65,9.65,0,0,0-2.5-4.71,5.71,5.71,0,0,0-4-1.55,6.92,6.92,0,0,0-4.78,2,11.85,11.85,0,0,0-3.22,5.48q-1.07,3.53-1.06,11.11v22.75A14.57,14.57,0,0,1,83.05,222a15.41,15.41,0,0,1-5.26-1.29Z"/><path class="cls-1" d="M6.43,239.89a11,11,0,0,1,2.42-.45,11.72,11.72,0,0,1,2.42.44L15,264.46l4.63-24.56a6.92,6.92,0,0,1,2-.46,9.28,9.28,0,0,1,2.05.44l4.69,24.58,3.7-24.56a14.25,14.25,0,0,1,2.41-.46,12.8,12.8,0,0,1,2.42.46l-5.81,38.6a14.79,14.79,0,0,1-2.37.43,13.55,13.55,0,0,1-2.36-.43l-4.76-25.1L17,278.5a11.48,11.48,0,0,1-2.34.45,9.26,9.26,0,0,1-2.34-.45Z"/><path class="cls-1" d="M59.49,265.93H44.07a9.19,9.19,0,0,0,1.78,4.87,4.53,4.53,0,0,0,3.7,1.81,5.15,5.15,0,0,0,4.5-2.64,6.53,6.53,0,0,1,2.55.81,6.24,6.24,0,0,1,1.54,2.06,11.26,11.26,0,0,1-3.54,4.56,8.22,8.22,0,0,1-5,1.54q-4.5,0-7.34-4.26A19,19,0,0,1,39.42,264a19.58,19.58,0,0,1,2.83-10.91q2.82-4.34,7.08-4.34,4.52,0,7.35,4.34t2.83,11.47Zm-4.8-5.67a7.8,7.8,0,0,0-1.88-3.91,4.31,4.31,0,0,0-3.25-1.5A4.59,4.59,0,0,0,46,256.54a10,10,0,0,0-1.76,3.72Z"/><path class="cls-1" d="M68.12,239.89v12.73a10,10,0,0,1,2.81-2.93,5.88,5.88,0,0,1,3.24-1c2.5,0,4.62,1.41,6.37,4.25a20.51,20.51,0,0,1,2.62,10.89,19.87,19.87,0,0,1-2.71,10.73q-2.72,4.32-6.42,4.32A5.72,5.72,0,0,1,71,278a10.13,10.13,0,0,1-2.83-2.89v3.37a6.73,6.73,0,0,1-4.76,0v-38.6a7.9,7.9,0,0,1,2.39-.44A8.54,8.54,0,0,1,68.12,239.89Zm5,15.48a4.38,4.38,0,0,0-3.76,2.32,11,11,0,0,0-1.5,6.07A11.42,11.42,0,0,0,69.4,270a4.12,4.12,0,0,0,7.47,0,11.37,11.37,0,0,0,1.5-6.12,11.19,11.19,0,0,0-1.48-6.06A4.32,4.32,0,0,0,73.16,255.37Z"/><path class="cls-1" d="M97.72,239.49H103q4.23,0,6.11,1.18a7.76,7.76,0,0,1,3,3.81,16.68,16.68,0,0,1,1.08,6.32,14.45,14.45,0,0,1-1.42,6.79,7.86,7.86,0,0,1-3.84,3.76,14.85,14.85,0,0,1-5.19.61V278.5a9.28,9.28,0,0,1-2.47.42,10.14,10.14,0,0,1-2.46-.42Zm4.93,15.24h1.56a5.86,5.86,0,0,0,2.57-.4,2.78,2.78,0,0,0,1.14-1.32,5.47,5.47,0,0,0,.41-2.22,4.23,4.23,0,0,0-1.16-3.3,4.76,4.76,0,0,0-3.13-.77h-1.39Z"/><path class="cls-1" d="M116.86,239.89a8.78,8.78,0,0,1,2.4-.46,9.69,9.69,0,0,1,2.4.46v38.6a8.66,8.66,0,0,1-2.4.46,10.76,10.76,0,0,1-2.4-.46Z"/><path class="cls-1" d="M140.16,249.67a8.59,8.59,0,0,1,2.37-.49,11.88,11.88,0,0,1,2.43.49V278.5a8.44,8.44,0,0,1-2.41.43,9,9,0,0,1-2.39-.43v-3.36a10.37,10.37,0,0,1-2.82,2.89,5.7,5.7,0,0,1-3.07.88c-2.47,0-4.61-1.43-6.41-4.31a19.75,19.75,0,0,1-2.71-10.72q0-6.64,2.62-10.89t6.36-4.24a5.84,5.84,0,0,1,3.23,1,9.88,9.88,0,0,1,2.8,2.93Zm-5,5.72a4.3,4.3,0,0,0-3.7,2.36,13.17,13.17,0,0,0,0,12.17,4.33,4.33,0,0,0,3.69,2.4,4.39,4.39,0,0,0,3.76-2.36,11.44,11.44,0,0,0,1.49-6.18,11.11,11.11,0,0,0-1.49-6.07A4.41,4.41,0,0,0,135.11,255.39Z"/><path class="cls-1" d="M150.39,239.89l2.42-.43,2.39.43v9.76h2.64a10.79,10.79,0,0,1,0,6.2H155.2V278.5a6.77,6.77,0,0,1-2.4.46,6.08,6.08,0,0,1-2.41-.46V255.85h-2.23a16.85,16.85,0,0,1-.45-3.11,12.45,12.45,0,0,1,.45-3.09h2.23Z"/><path class="cls-1" d="M162,249.78h1.49c0-3.77.06-6,.13-6.68a6.66,6.66,0,0,1,1.33-3.76,3.9,3.9,0,0,1,3.21-1.38,6.47,6.47,0,0,1,3.16,1l.42,2.73-.41,2.78a3.84,3.84,0,0,0-1.5-.47,1.42,1.42,0,0,0-1.23.52,3.16,3.16,0,0,0-.28,1.64l0,3.59h2.82a12,12,0,0,1,.44,3,18.57,18.57,0,0,1-.44,3.13h-2.82v22.62a8.79,8.79,0,0,1-2.4.45,8.41,8.41,0,0,1-2.41-.45V255.87H162a13.33,13.33,0,0,1-.44-3.13A10.81,10.81,0,0,1,162,249.78Z"/><path class="cls-1" d="M184.8,248.77a7.75,7.75,0,0,1,5.09,2,13.3,13.3,0,0,1,3.72,5.51,20.69,20.69,0,0,1,1.34,7.5,21,21,0,0,1-1.35,7.58,13.28,13.28,0,0,1-3.67,5.52,7.67,7.67,0,0,1-5.12,2q-4.11,0-7-4.39a18.81,18.81,0,0,1-2.91-10.65,18.43,18.43,0,0,1,3.29-11.19Q181.06,248.77,184.8,248.77Zm.07,6.77a4.35,4.35,0,0,0-3.72,2.33,10.85,10.85,0,0,0-1.49,6,11.13,11.13,0,0,0,1.47,6.05,4.32,4.32,0,0,0,3.73,2.32,4.38,4.38,0,0,0,3.75-2.34,12.9,12.9,0,0,0,0-12A4.36,4.36,0,0,0,184.87,255.54Z"/><path class="cls-1" d="M198.19,249.12a5,5,0,0,1,2.05-.44,4.87,4.87,0,0,1,2.07.43v4a7.81,7.81,0,0,1,1.77-3.28,3.36,3.36,0,0,1,2.43-1.12,3,3,0,0,1,1.81.74,7.29,7.29,0,0,1-.08,3.26c-.49,2.36-1.48,2.88-1.48,2.88a1.74,1.74,0,0,0-1.18-.51c-.74,0-1.37.7-1.88,2.08s-.76,4.11-.76,8.17l0,1.41v11.74a6.93,6.93,0,0,1-2.39.47,10.35,10.35,0,0,1-2.38-.47Z"/><path class="cls-1" d="M211.64,249.62a7.53,7.53,0,0,1,2.39-.51,8.15,8.15,0,0,1,2.42.51v3.16a9.4,9.4,0,0,1,2.73-3.06,5.76,5.76,0,0,1,3.29-1,4.69,4.69,0,0,1,3.24,1.34,9.34,9.34,0,0,1,2.32,3.89,10.14,10.14,0,0,1,2.81-3.89,5.69,5.69,0,0,1,3.63-1.34,5.11,5.11,0,0,1,3.59,1.44,8.07,8.07,0,0,1,2.23,3.76,29.83,29.83,0,0,1,.68,7.55v17a8.31,8.31,0,0,1-2.43.47,7.44,7.44,0,0,1-2.41-.47V263.74q0-4.94-.81-6.68a2.61,2.61,0,0,0-2.43-1.75,2.93,2.93,0,0,0-2.2,1.07,6.75,6.75,0,0,0-1.46,2.95,27.65,27.65,0,0,0-.47,6v13.09a7.46,7.46,0,0,1-2.42.47,8.11,8.11,0,0,1-2.42-.47V264.4a28.86,28.86,0,0,0-.38-5.63,5.73,5.73,0,0,0-1.13-2.6,2.38,2.38,0,0,0-1.84-.86,2.91,2.91,0,0,0-2.18,1.08,6.92,6.92,0,0,0-1.46,3,28.12,28.12,0,0,0-.48,6.13v12.9a8.24,8.24,0,0,1-2.42.45,7.93,7.93,0,0,1-2.39-.45Z"/></svg>