<svg viewBox="0 0 502.09 128.25" xmlns="http://www.w3.org/2000/svg"><g fill="#231815"><path d="m140.47 55.11a16.8 16.8 0 0 1 3.66-.67 17.92 17.92 0 0 1 3.65.65l5.66 37.15 7-37.12a10.58 10.58 0 0 1 3.08-.69 13.83 13.83 0 0 1 3.11.67l7.08 37.14 5.6-37.12a22.23 22.23 0 0 1 3.64-.69 19.67 19.67 0 0 1 3.66.69l-8.79 58.34a21.74 21.74 0 0 1 -3.58.66 21.6 21.6 0 0 1 -3.56-.66l-7.21-37.93-7.07 37.93a16.47 16.47 0 0 1 -3.52.68 14.05 14.05 0 0 1 -3.55-.68z"/><path d="m220.67 94.47h-23.32a14 14 0 0 0 2.7 7.36 6.87 6.87 0 0 0 5.6 2.73c2.71 0 4.83-1.13 6.78-4a9.62 9.62 0 0 1 3.86 1.22 9.36 9.36 0 0 1 2.33 3.1 17 17 0 0 1 -5.34 6.9 12.54 12.54 0 0 1 -7.58 2.33q-6.81 0-11.09-6.44t-4.28-16.13q0-9.93 4.27-16.49t10.7-6.56q6.82 0 11.11 6.56t4.28 17.33zm-7.26-8.57a11.88 11.88 0 0 0 -2.84-5.9 6.54 6.54 0 0 0 -4.91-2.27 7 7 0 0 0 -5.33 2.55 15.5 15.5 0 0 0 -2.66 5.63z"/><path d="m233.7 55.11v19.25a15.1 15.1 0 0 1 4.3-4.43 8.92 8.92 0 0 1 4.89-1.48q5.67 0 9.63 6.43t4 16.47q0 9.69-4.09 16.21t-9.71 6.52a8.64 8.64 0 0 1 -4.65-1.34 15.32 15.32 0 0 1 -4.28-4.36v5.09a10.12 10.12 0 0 1 -7.19 0v-58.36a11.85 11.85 0 0 1 3.61-.66 13.28 13.28 0 0 1 3.49.66zm7.63 23.39c-2.29 0-4.19 1.18-5.69 3.51a16.69 16.69 0 0 0 -2.26 9.18 17.24 17.24 0 0 0 2.26 9.35q2.25 3.57 5.69 3.57c2.21 0 4.08-1.21 5.59-3.63a17.11 17.11 0 0 0 2.28-9.25 17 17 0 0 0 -2.2-9.16q-2.26-3.57-5.67-3.57z"/><path d="m278.44 54.5h7.9c4.27 0 7.35.6 9.24 1.78a11.87 11.87 0 0 1 4.47 5.77 25.19 25.19 0 0 1 1.63 9.56 21.9 21.9 0 0 1 -2.14 10.25 11.94 11.94 0 0 1 -5.81 5.69c-1.43.62-4.05.92-7.84.92v25a14.06 14.06 0 0 1 -3.73.64 15 15 0 0 1 -3.72-.64zm7.45 23h2.37a8.62 8.62 0 0 0 3.88-.61 4 4 0 0 0 1.71-2 8 8 0 0 0 .63-3.35q0-3.42-1.76-5c-.85-.77-2.43-1.16-4.73-1.16h-2.1z"/><path d="m307.36 55.12a13 13 0 0 1 3.63-.7 14.86 14.86 0 0 1 3.63.7v58.33a13 13 0 0 1 -3.62.7 16.2 16.2 0 0 1 -3.64-.7z"/><path d="m342.57 69.9a13.17 13.17 0 0 1 3.6-.75 18.33 18.33 0 0 1 3.66.75v43.57a13 13 0 0 1 -3.64.65 14 14 0 0 1 -3.62-.65v-5.08a15.41 15.41 0 0 1 -4.26 4.36 8.58 8.58 0 0 1 -4.63 1.34q-5.61 0-9.7-6.52t-4.08-16.2q0-10 4-16.46t9.62-6.41a8.85 8.85 0 0 1 4.83 1.5 14.9 14.9 0 0 1 4.22 4.43zm-7.63 8.64q-3.36 0-5.59 3.57a17 17 0 0 0 -2.22 9.14 17.2 17.2 0 0 0 2.26 9.25q2.26 3.63 5.58 3.63t5.67-3.57a17.3 17.3 0 0 0 2.25-9.35 16.73 16.73 0 0 0 -2.25-9.16q-2.25-3.51-5.7-3.51z"/><path d="m358.05 55.11 3.64-.64 3.62.64v14.76h4a20 20 0 0 1 .68 4.67 20.25 20.25 0 0 1 -.69 4.7h-4v34.22a10 10 0 0 1 -3.63.69 9 9 0 0 1 -3.63-.68v-34.23h-3.37a25.78 25.78 0 0 1 -.69-4.7 19 19 0 0 1 .68-4.67h3.38z"/><path d="m375.55 70.06h2.25c0-5.69.08-9.06.19-10.09a10 10 0 0 1 2-5.69 5.93 5.93 0 0 1 4.85-2.09 9.77 9.77 0 0 1 4.78 1.56l.64 4.13-.62 4.2a5.87 5.87 0 0 0 -2.28-.72 2.16 2.16 0 0 0 -1.86.8 4.81 4.81 0 0 0 -.42 2.47v5.43h4.27a18.5 18.5 0 0 1 .66 4.47 29.45 29.45 0 0 1 -.66 4.74h-4.27v34.18a13 13 0 0 1 -3.63.68 12.36 12.36 0 0 1 -3.63-.68v-34.18h-2.27a20.6 20.6 0 0 1 -.67-4.74 16.11 16.11 0 0 1 .67-4.47z"/><path d="m410 68.54a11.67 11.67 0 0 1 7.7 3.07 20.15 20.15 0 0 1 5.62 8.31 31.28 31.28 0 0 1 2 11.34 32.07 32.07 0 0 1 -2 11.47 20.19 20.19 0 0 1 -5.55 8.33 11.58 11.58 0 0 1 -7.73 3q-6.22 0-10.62-6.63t-4.42-16.09q0-10.14 5-16.91c2.92-3.93 6.27-5.89 10-5.89zm.12 10.23q-3.37 0-5.63 3.52a16.47 16.47 0 0 0 -2.25 9 16.9 16.9 0 0 0 2.22 9.16q2.22 3.5 5.63 3.5t5.68-3.54a16.66 16.66 0 0 0 2.26-9.12 16.6 16.6 0 0 0 -2.22-9c-1.45-2.36-3.34-3.52-5.65-3.52z"/><path d="m430.28 69.06a7.77 7.77 0 0 1 3.11-.66 7.28 7.28 0 0 1 3.12.64v6a11.9 11.9 0 0 1 2.68-5 5.09 5.09 0 0 1 3.67-1.7 4.49 4.49 0 0 1 2.73 1.12 10.84 10.84 0 0 1 -.12 4.93c-.74 3.57-2.23 4.36-2.23 4.36a2.63 2.63 0 0 0 -1.79-.77c-1.12 0-2.06 1-2.83 3.14s-1.16 6.21-1.16 12.34v2.14 17.74a10.24 10.24 0 0 1 -3.61.71 16 16 0 0 1 -3.6-.71z"/><path d="m450.62 69.81a11.17 11.17 0 0 1 3.61-.76 12.54 12.54 0 0 1 3.64.76v4.79a14.52 14.52 0 0 1 4.13-4.6 8.72 8.72 0 0 1 5-1.53 7 7 0 0 1 4.9 2 14.11 14.11 0 0 1 3.51 5.88 15.32 15.32 0 0 1 4.25-5.88 8.54 8.54 0 0 1 5.49-2 7.74 7.74 0 0 1 5.43 2.18 12.2 12.2 0 0 1 3.36 5.68q1 3.51 1 11.4v25.7a12.71 12.71 0 0 1 -3.67.71 11.37 11.37 0 0 1 -3.64-.71v-22.28c0-5-.41-8.33-1.23-10.09a3.92 3.92 0 0 0 -3.67-2.64 4.41 4.41 0 0 0 -3.33 1.58 10.05 10.05 0 0 0 -2.2 4.45 41.76 41.76 0 0 0 -.71 9.12v19.78a11.41 11.41 0 0 1 -3.66.71 12.41 12.41 0 0 1 -3.66-.71v-21.19a44.92 44.92 0 0 0 -.57-8.52 8.56 8.56 0 0 0 -1.72-3.93 3.57 3.57 0 0 0 -2.77-1.29 4.38 4.38 0 0 0 -3.29 1.64 10.39 10.39 0 0 0 -2.21 4.57 41.85 41.85 0 0 0 -.74 9.26v19.5a12.41 12.41 0 0 1 -3.65.68 11.8 11.8 0 0 1 -3.6-.68z"/><path d="m120.07 52c0 .08-.22 3.61-5.89 5.85a43.4 43.4 0 0 0 -6.25 3.78c-2.94 1.95-6.59 4.36-8.31 5a43.47 43.47 0 0 1 -10.62 2.13l3.64-13.93c1.38-1.64 5.89-7 8.76-10.48 1.41-1.72 2.06-1.8 4-2a21.39 21.39 0 0 0 5.48-1.35c6.82-2.59 7.17-15.24 7.17-17.75a7 7 0 0 0 -2.92-1 4.2 4.2 0 0 0 -2.74 1c0 5.26-1.45 11.67-3.53 12.46a15.89 15.89 0 0 1 -4.18.95 10 10 0 0 0 -7.68 4.09c-1.69 2-4 4.77-5.82 7l-3.18-10.22c-.73-2.31.19-5.9 1-9.06a41.63 41.63 0 0 0 1-4.83c.7-5.46-6.42-11.07-8.62-12.66a4.09 4.09 0 0 0 -2.63 1.56 4.9 4.9 0 0 0 -.69 3c3.42 2.47 6.49 6 6.32 7.35a40.1 40.1 0 0 1 -.91 4.14c-1 3.9-2.14 8.32-.92 12.18l4.54 14.33-1.9 7.46c-.18-.58-.37-1.17-.56-1.77-3.72-11.71-6.13-14.84-7.63-16.18a18.2 18.2 0 0 0 -7.49-4 12.55 12.55 0 0 1 -5.37-2.78c-2.47-2.27-3.3-10.33-3.14-15.36a3.78 3.78 0 0 0 -2.85-1.13 3.63 3.63 0 0 0 -2.81.9 55.6 55.6 0 0 0 .31 7.67c.66 5.85 2.23 9.93 4.66 12.14a18.08 18.08 0 0 0 7.47 4 12.85 12.85 0 0 1 5.4 2.79c2.36 2.13 5.91 12.6 8.26 21.2a33.5 33.5 0 0 1 -10.44-3.48c-2.32-1.34-4-3.9-5.48-6.15a18.54 18.54 0 0 0 -2.85-3.7c-5.54-5-15.4-8.32-15.82-8.46a4.56 4.56 0 0 0 -1.85 2.21 6 6 0 0 0 0 3.1c.09 0 9.16 3.11 13.84 7.3a17.1 17.1 0 0 1 1.9 2.6c1.65 2.5 3.9 5.93 7.38 7.94 4.92 2.85 10.92 4 14.31 4.51v39.1a7.71 7.71 0 0 0 2.8.66 6.72 6.72 0 0 0 2.85-.66v-38.93a51.06 51.06 0 0 0 13.48-2.61c2.33-.86 6-3.26 9.46-5.58a57.87 57.87 0 0 1 5.21-3.25c7.6-3 8.57-9 8.78-9.4a4.2 4.2 0 0 0 -1.91-2.19 2.58 2.58 0 0 0 -3.03.51z"/></g><circle cx="67.22" cy="51.13" fill="#fff100" r="4.06"/><circle cx="97.8" cy="30.84" fill="#e4007f" r="4.06"/><circle cx="75.15" cy="32.45" fill="#094" r="4.06"/><circle cx="98.37" cy="58.5" fill="#fff100" r="4.06"/><circle cx="109.69" cy="49.43" fill="#00a0e9" r="4.06"/><circle cx="125.75" cy="45.97" fill="#e4007f" r="4.06"/><circle cx="115.36" cy="16.36" fill="#094" r="4.06"/><circle cx="74.58" cy="7.86" fill="#fff100" r="4.06"/><circle cx="57.59" cy="13.52" fill="#e4007f" r="4.06"/><circle cx="37.77" cy="46.6" fill="#00a0e9" r="4.06"/><path d="m100.81 77.24h13.19a9 9 0 0 1 .65 3.18 7.73 7.73 0 0 1 -.65 3.14h-9.07l-1.17 6.53a6.26 6.26 0 0 1 1-.26 4.7 4.7 0 0 1 .9-.08 7.93 7.93 0 0 1 6.5 3.33 13.57 13.57 0 0 1 2.59 8.54 13.78 13.78 0 0 1 -2.87 8.86 8.7 8.7 0 0 1 -13.28 1 11.93 11.93 0 0 1 -3.39-6.84 6.52 6.52 0 0 1 2.79-.64 5.6 5.6 0 0 1 2.9.67 4.54 4.54 0 0 0 1.62 2.22 3.73 3.73 0 0 0 2.39.87 3.79 3.79 0 0 0 3.09-1.66 6.63 6.63 0 0 0 1.27-4.2 6.7 6.7 0 0 0 -1.18-4.09 3.47 3.47 0 0 0 -2.87-1.6 3.15 3.15 0 0 0 -1.76.56 4.83 4.83 0 0 0 -1.5 1.4 5 5 0 0 1 -2.46 0 5.1 5.1 0 0 1 -2.16-1.26z" fill="#231815"/><path d="m119.1 87.19a5.83 5.83 0 0 1 2.64-.68 6.63 6.63 0 0 1 2.68.7v26.86a20.29 20.29 0 0 1 -.59 5.66 5.76 5.76 0 0 1 -1.89 2.87 4.91 4.91 0 0 1 -3.11 1 9.34 9.34 0 0 1 -3.69-1 7.58 7.58 0 0 1 -.64-2.66 7.5 7.5 0 0 1 .63-2.64 3.64 3.64 0 0 0 1.92.77 1.73 1.73 0 0 0 1.53-.75 5.4 5.4 0 0 0 .51-2.79zm2.65-10.41a3.27 3.27 0 0 1 2.43 1 3.6 3.6 0 0 1 0 5 3.2 3.2 0 0 1 -2.39 1 3.24 3.24 0 0 1 -2.43-1 3.57 3.57 0 0 1 -1-2.55 3.36 3.36 0 0 1 1-2.44 3.22 3.22 0 0 1 2.39-1.01z" fill="#231815"/><path d="m6.35 77.41a7.75 7.75 0 0 1 2.65-.67 7.74 7.74 0 0 1 2.64.67v12.48a12.15 12.15 0 0 1 3.15-2.53 6.74 6.74 0 0 1 3.2-.84 6.58 6.58 0 0 1 5.34 2.73c1.24 1.58 1.86 3.91 1.86 7v17.23a6.44 6.44 0 0 1 -2.63.66 6.9 6.9 0 0 1 -2.63-.65v-11.36a36.24 36.24 0 0 0 -.35-6.25 4.74 4.74 0 0 0 -1.2-2.45 3 3 0 0 0 -2.11-.8 3.56 3.56 0 0 0 -2.77 1.37 7.74 7.74 0 0 0 -1.62 3.67 39.08 39.08 0 0 0 -.23 5.47v10.36a5.18 5.18 0 0 1 -2.65.65 5.77 5.77 0 0 1 -2.65-.66z" fill="#231815"/><path d="m31 77.4a7.28 7.28 0 0 1 2.69-.66 7.64 7.64 0 0 1 2.65.66v9.8h2.81a6.4 6.4 0 0 1 0 5.74h-2.81v20.52a5.62 5.62 0 0 1 -2.67.65 6.28 6.28 0 0 1 -2.67-.65v-20.52h-2.39a9.62 9.62 0 0 1 -.68-2.87 9.51 9.51 0 0 1 .69-2.87h2.38z" fill="#231815"/><path d="m42.32 87.2a6.64 6.64 0 0 1 2.68-.69 7.23 7.23 0 0 1 2.67.69v3a9.63 9.63 0 0 1 3-2.81 7.39 7.39 0 0 1 3.65-.93 5.77 5.77 0 0 1 3.68 1.28 8.37 8.37 0 0 1 2.58 3.56 9.7 9.7 0 0 1 3.12-3.56 7.17 7.17 0 0 1 4-1.23 6.39 6.39 0 0 1 4 1.32 7.34 7.34 0 0 1 2.47 3.45 22.75 22.75 0 0 1 .75 6.91v15.27a7.46 7.46 0 0 1 -2.7.66 6.74 6.74 0 0 1 -2.67-.66v-13.16q0-4.53-.9-6.13a2.92 2.92 0 0 0 -2.7-1.6 3.57 3.57 0 0 0 -2.45 1 5.84 5.84 0 0 0 -1.62 2.7 21 21 0 0 0 -.52 5.54v11.67a5 5 0 0 1 -2.7.65 6.59 6.59 0 0 1 -2.68-.65v-12.57a22.56 22.56 0 0 0 -.42-5.17 4.77 4.77 0 0 0 -1.27-2.38 2.85 2.85 0 0 0 -2-.79 3.5 3.5 0 0 0 -2.42 1 6 6 0 0 0 -1.63 2.78 21.13 21.13 0 0 0 -.54 5.62v11.5a7.4 7.4 0 0 1 -2.67.66 8.06 8.06 0 0 1 -2.67-.66z" fill="#231815"/></svg>